<?xml version="1.0" encoding="utf-8"?>
<!-- Generator: Adobe Illustrator 27.3.0, SVG Export Plug-In . SVG Version: 6.00 Build 0)  -->
<svg version="1.1" id="Capa_1" xmlns="http://www.w3.org/2000/svg" xmlns:xlink="http://www.w3.org/1999/xlink" x="0px" y="0px"
	 viewBox="0 0 800 800" style="enable-background:new 0 0 800 800;" xml:space="preserve">
<style type="text/css">
	.st0{enable-background:new    ;}
	.st1{fill:#233251;enable-background:new    ;}
	.st2{fill:#0185F4;enable-background:new    ;}
	.st3{fill:#68DCCF;enable-background:new    ;}
	.st4{fill:#F36771;}
	.st5{fill:#68DCCF;}
	.st6{fill:#FEC832;}
	.st7{fill:#364A87;}
</style>
<g class="st0">
	<g>
		<g class="st0">
			<path class="st1" d="M112.6,402.2c0.1,13.7,9.5,27.3,24,27.2c4.7,0,9.5-1.6,14.1-4.6l-7.9-7.6c-3.4,3.8-8.2,5.9-13.7,5.9
				c-1.5,0-3-0.3-4.4-0.7c-0.7-0.2-1-0.9-0.9-1.6c0.2-0.7,0.9-1,1.6-0.9c1.1,0.4,2.4,0.5,3.7,0.5c5.2,0,9.7-2.1,12.5-6
				c0.2-0.3,0.6-0.5,0.9-0.5c0.4,0,0.8,0.1,0.9,0.4l10.1,9.7c0.3,0.3,0.5,0.7,0.4,1c0,0.4-0.2,0.8-0.5,0.9
				c-5.4,3.9-11.2,5.9-16.9,5.9c-16,0.1-26.5-14.4-26.6-29.7c-0.1-11.4,6.7-21,18.7-21.1c5.4,0,10.2,2,13.7,5.7l8-8
				c-5.7-5.7-13.4-8.7-21.8-8.7c-17.7,0.1-30.9,13.9-30.8,32.1c0.1,18.3,13.5,31.9,31.2,31.8c0.8,0,1.3,0.6,1.3,1.3
				c0,0.8-0.6,1.4-1.3,1.4c-19.4,0.1-33.6-15.5-33.8-34.5c-0.1-19.2,13.9-34.6,33.3-34.7c9.6-0.1,18.3,3.5,24.7,10.4
				c0.5,0.6,0.4,1.3-0.1,1.8l-10,9.9c-0.2,0.3-0.6,0.4-0.9,0.4c-0.4-0.1-0.8-0.2-0.9-0.6c-2.9-3.7-7.5-5.9-12.6-5.8
				C119.1,383.7,112.5,391.2,112.6,402.2z"/>
			<path class="st1" d="M172.7,401.8c0.1,13.7,9.5,27.3,24,27.2c4.7,0,9.5-1.6,14.1-4.6l-7.9-7.6c-3.4,3.8-8.2,5.9-13.7,5.9
				c-1.5,0-3-0.3-4.4-0.7c-0.7-0.2-1-0.9-0.9-1.6c0.2-0.7,0.9-1,1.6-0.9c1.1,0.4,2.4,0.5,3.7,0.5c5.2,0,9.7-2.1,12.5-6
				c0.2-0.3,0.6-0.5,0.9-0.5s0.8,0.1,0.9,0.4l10.1,9.7c0.3,0.3,0.5,0.7,0.4,1c0,0.4-0.2,0.8-0.5,0.9c-5.4,3.9-11.2,5.9-16.9,5.9
				c-16,0.1-26.5-14.4-26.6-29.7c-0.1-11.4,6.7-21,18.7-21.1c5.4,0,10.2,2,13.7,5.7l8-8c-5.7-5.7-13.4-8.7-21.8-8.7
				c-17.7,0.1-30.9,13.9-30.8,32.1c0.1,18.3,13.5,31.9,31.2,31.8c0.8,0,1.3,0.6,1.3,1.3c0,0.8-0.6,1.4-1.3,1.4
				c-19.4,0.1-33.6-15.5-33.8-34.5c-0.1-19.2,13.9-34.6,33.3-34.7c9.6-0.1,18.3,3.5,24.7,10.4c0.5,0.6,0.4,1.3-0.1,1.8l-10,9.9
				c-0.2,0.3-0.6,0.4-0.9,0.4c-0.4-0.1-0.8-0.2-0.9-0.6c-2.9-3.7-7.5-5.9-12.6-5.8C179.2,383.3,172.6,390.8,172.7,401.8z"/>
			<path class="st1" d="M267.8,421.4c0.7,0,1.3,0.6,1.3,1.3l0.1,11.1c0,0.8-0.6,1.3-1.3,1.3l-46.2,0.3c-0.8,0-1.3-0.6-1.3-1.3
				l-0.2-28.7c-0.1-13.5,5.6-26.6,20.9-26.7l24-0.2l-0.1-8.5l-42.6,0.3l0.1,14.6c0,0.7-0.6,1.2-1.2,1.2c-0.8,0-1.3-0.6-1.3-1.2
				l-0.1-16c0-0.7,0.6-1.2,1.3-1.2l45.2-0.3c0.8,0,1.3,0.6,1.3,1.2l0.1,11.2c0,0.7-0.6,1.2-1.3,1.2l-25.4,0.2
				c-11.6,0.1-18.5,9.1-18.4,24.2l0.2,27.5l43.7-0.3l-0.1-8.5l-30.8,0.2c-0.7,0-1.2-0.6-1.2-1.3l-0.1-17c0-0.8,0.6-1.3,1.2-1.3
				l25.5-0.2l-0.1-8.5l-25.5,0.2c-0.7,0-1.2-0.6-1.2-1.2l0-7.1c0-0.8,0.6-1.3,1.2-1.3c0.8,0,1.3,0.6,1.3,1.3l0,5.8l25.5-0.2
				c0.8,0,1.3,0.6,1.3,1.3l0.1,11.1c0,0.8-0.6,1.3-1.3,1.3l-25.5,0.2l0.1,14.4L267.8,421.4z"/>
			<path class="st1" d="M292,386.6c0,3.4,5.5,4.6,11.8,6c10.8,2.6,23,5.8,24.5,18.8c0.1,0.8-0.4,1.4-1.1,1.4c0,0-0.1,0.1-0.2,0.1
				c-0.6,0-1.1-0.6-1.2-1.2c-1.5-11.7-12.7-14.3-22.6-16.6c-7.3-1.7-13.7-3.2-13.8-8.5c0-4,3.9-6.5,10.4-6.5c5.8,0,11.4,1.9,17,5.9
				l8.3-8.2c-5.6-5.3-15.1-8.8-24.2-8.8c-11.6,0.1-23.9,4.8-23.8,18.3c0.2,24.7,42.2,15,48.9,31.3c0.9,2.2,0.5,4.7-1.1,7.1
				c-4.5,6.4-12.7,9.9-23.1,10c-9.3,0.1-22.6-3.6-28.9-10.5c-0.5-0.5-0.5-1.2,0.1-1.8l9.9-9.8c0.6-0.5,1.3-0.5,1.8,0
				c3.7,3.4,11.3,5.9,18.1,5.9c4.1,0,7.1-1,8.1-2.6c0.4-0.7,1.1-0.9,1.8-0.5c0.6,0.4,0.8,1.2,0.5,1.8c-1.6,2.5-5.1,3.9-10.3,3.9
				c-6.9,0-14.5-2.3-18.9-5.9l-8.2,8.1c6,5.6,17.7,8.9,26.2,8.8c9.6-0.1,17.1-3.3,21.1-9c1-1.7,1.3-3.2,0.7-4.6
				c-3.3-8.8-31.8-10.8-40.8-16.6c-5.6-3.5-8.3-8.7-8.4-15.6c-0.1-12.8,10.1-20.7,26.4-20.8c10.2-0.1,21.1,4.1,26.9,10.4
				c0.5,0.6,0.5,1.3,0,1.8l-10,9.9c-0.5,0.5-1.2,0.5-1.7,0.1c-5.5-4.1-10.8-6.1-16.4-6.1C297.6,382.6,292,383.1,292,386.6z"/>
			<path class="st1" d="M400.5,400.4c0.1,16.5-11.4,28.1-27.8,28.2c-15.8,0.1-24.6-13.2-24.7-27.8c-0.1-11.4,6.7-21,18.7-21.1
				c12.1-0.1,19,9.4,19.1,20.8c0.1,10.2-6.7,18.9-15.8,20.3c-0.7,0.1-1.3-0.4-1.4-1.1c-0.1-0.7,0.4-1.3,1-1.4
				c7.9-1.2,13.7-8.8,13.6-17.7c-0.1-11-6.6-18.4-16.5-18.3c-9.8,0.1-16.3,7.5-16.2,18.5c0.1,12.3,7,25.4,22.1,25.3
				c14.9-0.1,25.3-10.6,25.2-25.6c-0.1-18.2-13.5-31.9-31.2-31.8c-17.7,0.1-30.9,14-30.8,32.2c0.1,18.3,13.6,32,31.2,31.9
				c4.7,0,7-1.5,7-1.5c0.6-0.4,1.4-0.2,1.8,0.5c0.4,0.6,0.2,1.3-0.5,1.7c-0.1,0.1-2.8,1.8-8.3,1.8c-19.4,0.1-33.6-15.4-33.8-34.4
				c-0.1-19.1,13.9-34.7,33.3-34.8C386.1,365.9,400.4,381.2,400.5,400.4z"/>
			<path class="st2" d="M456.8,366.2c0.8,0,1.3,0.6,1.3,1.2l0.1,11.2c0,0.7-0.6,1.2-1.3,1.2l-18.7,0.1l0,1.6c0,0.8-0.6,1.3-1.3,1.3
				c-0.7,0-1.2-0.6-1.2-1.3l0-2.8c0-0.8,0.6-1.3,1.2-1.3l18.8-0.1l-0.1-8.5l-51.6,0.3l0.1,8.5l13.1-0.1c14-0.1,21.1,7.9,21.2,23.7
				l0.2,31.5c0,0.8-0.6,1.3-1.3,1.3l-14.1,0.1c-0.8,0-1.3-0.6-1.3-1.3l-0.3-47.3c0-0.7,0.6-1.2,1.3-1.2c0.7,0,1.2,0.6,1.2,1.2
				l0.3,46.1l11.6-0.1l-0.2-30.2c-0.1-13-4.9-21.3-18.6-21.2l-14.4,0.1c-0.8,0-1.3-0.6-1.3-1.2l-0.1-11.2c0-0.7,0.6-1.2,1.3-1.2
				L456.8,366.2z"/>
			<path class="st2" d="M526.1,399.5c0.1,16.5-11.4,28.1-27.8,28.2c-15.8,0.1-24.6-13.2-24.7-27.8c-0.1-11.4,6.7-21,18.7-21.1
				c12.1-0.1,19,9.4,19.1,20.8c0.1,10.2-6.7,18.9-15.8,20.3c-0.7,0.1-1.3-0.4-1.4-1.1c-0.1-0.7,0.4-1.3,1-1.4
				c7.9-1.2,13.7-8.8,13.6-17.7c-0.1-11-6.6-18.4-16.5-18.3c-9.8,0.1-16.3,7.5-16.2,18.5c0.1,12.3,7,25.4,22.1,25.3
				c14.9-0.1,25.3-10.6,25.2-25.6c-0.1-18.2-13.5-31.9-31.2-31.8c-17.7,0.1-30.9,14-30.8,32.2c0.1,18.3,13.6,32,31.2,31.9
				c4.7,0,7-1.5,7-1.5c0.6-0.4,1.4-0.2,1.8,0.5c0.4,0.6,0.2,1.3-0.5,1.7c-0.1,0.1-2.8,1.8-8.3,1.8c-19.4,0.1-33.6-15.4-33.8-34.4
				c-0.1-19.1,13.9-34.7,33.3-34.8C511.7,365,526,380.4,526.1,399.5z"/>
			<path class="st2" d="M582.4,365.3c0.8,0,1.3,0.6,1.3,1.2l0.1,11.2c0,0.7-0.6,1.2-1.3,1.2l-18.7,0.1l0,1.6c0,0.8-0.6,1.3-1.3,1.3
				c-0.7,0-1.2-0.6-1.2-1.3l0-2.8c0-0.8,0.6-1.3,1.2-1.3l18.8-0.1l-0.1-8.5l-51.6,0.3l0.1,8.5l13.1-0.1c14-0.1,21.1,7.9,21.2,23.7
				l0.2,31.5c0,0.8-0.6,1.3-1.3,1.3l-14.1,0.1c-0.8,0-1.3-0.6-1.3-1.3l-0.3-47.3c0-0.7,0.6-1.2,1.3-1.2c0.7,0,1.2,0.6,1.2,1.2
				l0.3,46.1l11.6-0.1l-0.2-30.2c-0.1-13-4.9-21.3-18.6-21.2l-14.4,0.1c-0.8,0-1.3-0.6-1.3-1.2l-0.1-11.2c0-0.7,0.6-1.2,1.3-1.2
				L582.4,365.3z"/>
			<path class="st2" d="M642.8,430.9c0.2,0.4,0.1,0.8-0.1,1.1c-0.3,0.4-0.7,0.6-1,0.6l-15.1,0.1c-0.5,0-1-0.4-1.1-0.8l-4.6-12.4
				l-16.6,0.1c-0.7,0-1.2-0.6-1.2-1.3c0-0.7,0.6-1.3,1.2-1.3l17.5-0.1c0.6,0,1,0.4,1.2,0.8l4.6,12.5l12.3-0.1l-23.1-62.5l-11.8,0.1
				l-22.2,62.8l9.6-0.1l4.4-12.5c2.5-7.1,9-12,15.9-12l3.2,0l-6.1-16.7l-6,16.7c-0.2,0.7-0.9,1-1.6,0.8c-0.7-0.2-1-0.9-0.8-1.6
				l7.1-20.1c0.2-0.6,0.7-0.8,1.2-0.9c0.5,0,1,0.3,1.2,0.8l7.9,21.7c0.2,0.4,0.1,0.8-0.1,1.2c-0.3,0.3-0.7,0.5-1,0.5l-5.1,0
				c-5.8,0-11.3,4.3-13.5,10.4l-4.7,13.3c-0.2,0.5-0.7,0.8-1.2,0.9l-12.4,0.1c-0.4,0-0.8-0.2-1-0.6c-0.2-0.3-0.3-0.7-0.1-1.1
				l23-65.3c0.2-0.6,0.7-0.8,1.2-0.9l13.7-0.1c0.6,0,1,0.3,1.2,0.8L642.8,430.9z"/>
			<path class="st2" d="M694.7,418.6c0.8,0,1.3,0.6,1.3,1.3l0.1,11.1c0,0.8-0.6,1.3-1.3,1.3l-44.4,0.3c-0.8,0-1.3-0.6-1.3-1.3
				l-0.1-14.9c0-0.8,0.6-1.3,1.3-1.3c0.7,0,1.2,0.6,1.2,1.3l0.1,13.7l41.9-0.3l-0.1-8.5l-22.8,0.2c-10.7,0.1-21.6-3.6-21.8-31.6
				l-0.2-23.7c0-0.7,0.6-1.2,1.3-1.2l14.1-0.1c0.8,0,1.3,0.6,1.3,1.2l0.3,46.9c0,0.7-0.6,1.2-1.3,1.2c-0.7,0-1.2-0.6-1.2-1.2
				l-0.3-45.5l-11.6,0.1l0.2,22.3c0.1,11.6,2,19.5,5.9,24.1c2.9,3.5,7.1,4.9,13.4,4.9L694.7,418.6z"/>
			<path class="st3" d="M710.9,432.9c-5.5,0-10.1-4.4-10.1-10c0-5.6,4.4-10.2,10-10.2c5.6,0,10.2,4.4,10.2,10.1
				c0,0.7-0.6,1.2-1.3,1.2c-0.7,0-1.3-0.6-1.3-1.2c0-4.2-3.3-7.5-7.6-7.5c-4.1,0-7.5,3.3-7.5,7.6c0,4.1,3.4,7.5,7.6,7.5
				c2.3,0,4.5-1.1,5.9-2.9c0.5-0.6,1.2-0.7,1.8-0.2c0.6,0.4,0.7,1.2,0.2,1.8C716.9,431.5,714,432.9,710.9,432.9z"/>
			<path class="st3" d="M741.2,364.3c0.4,0,0.7,0.3,0.7,0.7l0.2,36.4c0,0.4-0.3,0.7-0.7,0.7l-8.6,0.1c-0.4,0-0.7-0.3-0.7-0.7
				L732,382c-2.2,4.2-4.7,6.5-7.2,6.5l-0.1,0c-1.6,0-3.8-1-5.5-5.5l-6.6-17.2l-9.7,0.1l0.2,35l5.3,0l-0.2-23.6
				c0-0.3,0.3-0.6,0.6-0.7c0.4-0.1,0.7,0.1,0.8,0.4l9.2,23.8l4,0l4.3-10.6c0.2-0.4,0.6-0.5,0.9-0.4c0.4,0.2,0.5,0.6,0.4,0.9l-4.4,11
				c-0.1,0.3-0.4,0.4-0.7,0.4l-5,0c-0.3,0-0.6-0.2-0.7-0.5l-8-20.6l0.1,20.4c0,0.4-0.3,0.7-0.7,0.7l-6.8,0c-0.4,0-0.7-0.3-0.7-0.7
				l-0.2-36.4c0-0.4,0.3-0.7,0.7-0.7l10.8-0.1c0.3,0,0.6,0.2,0.7,0.5l6.8,17.6c1.1,2.9,2.6,4.5,4.2,4.5c2.4,0,5.1-3.2,7.3-8.6
				c0.1-0.3,0.5-0.5,0.8-0.5c0.4,0.1,0.6,0.4,0.6,0.7l0.1,22l7.2,0l-0.2-35l-9.2,0.1l-6.7,17.1c-0.2,0.4-0.6,0.5-0.9,0.4
				c-0.4-0.2-0.6-0.6-0.4-0.9l7-17.5c0.2-0.3,0.4-0.4,0.7-0.4L741.2,364.3z"/>
			<path class="st3" d="M768.9,382.7l11.3,18c0.2,0.2,0.2,0.5,0.1,0.7c-0.2,0.2-0.4,0.4-0.6,0.4l-9.3,0.1c-0.3,0-0.5-0.1-0.6-0.4
				l-6.3-10.1c-0.2-0.4-0.1-0.8,0.2-1c0.3-0.2,0.8-0.1,1,0.2l6.1,9.8l7.6-0.1L767.4,383c-0.2-0.2-0.2-0.5,0-0.7l10.2-16.9l-6.1,0
				l-2.8,4.7c-3,4.8-3.5,8.2-4.1,11.5c-0.5,2.7-0.9,5.3-2.8,8.5l-6.9,11.5c-0.1,0.3-0.4,0.4-0.6,0.4l-7.8,0.1
				c-0.3,0-0.5-0.2-0.6-0.4c-0.1-0.2-0.1-0.5,0-0.7l11.5-18.9L747,365.3c-0.1-0.3-0.1-0.5,0-0.7c0.2-0.3,0.4-0.4,0.6-0.4l9.3-0.1
				c0.3,0,0.5,0.1,0.6,0.3l5.8,9.4c0.2,0.3,0.1,0.7-0.2,0.9c-0.4,0.2-0.8,0.1-1-0.2l-5.7-9l-7.5,0.1l10,15.9c0.1,0.3,0.1,0.5,0,0.8
				l-11,18.3l6.1,0l6.7-11.2c1.7-2.8,2.1-5.2,2.6-7.9c0.6-3.2,1.2-6.8,4.2-12l3.1-5.1c0.2-0.2,0.4-0.3,0.6-0.3l7.8-0.1
				c0.3,0,0.5,0.1,0.6,0.4c0.1,0.2,0.1,0.5,0,0.7L768.9,382.7z"/>
		</g>
		<g>
			<path class="st4" d="M57,387.6c-0.3-0.4-0.7-0.8-1.1-1.1c-1.5-1.1-3.4-1.7-5.3-1.9c-1.5-0.2-3.1-0.1-4.6-0.1
				c-0.7,0-1.4,0.1-2.1,0.1c-0.3,0-2.1-0.1-2.2,0.1c1.9-3.5,4-6.9,5.9-10.3c1-1.7,2-3.5,3.4-4.9c1.4-1.4,3.2-2.5,5.2-2.5
				c2.1,0,4.1,1.1,5.5,2.7c1.4,1.6,2.2,3.6,2.9,5.6c2.9,8.9,2.3,18.6,1.6,27.9c-2.4-1.7-5.6-2.6-8.4-2.3c-0.3,0-1.2,0.1-1.4,0.1
				c-0.3-0.1,0.1-0.2-0.2-0.3c-0.5-0.2-1-0.1-1.5-0.1c-5.9,0.5-11.6,1.8-16.9,4.7c-0.9,0.5-1.8,1-2.6,1.6c-3.9,2.6-7.3,5.9-9,10.3
				c-2,5.3,2.8,14.6,2.8,14.6l-0.5-0.1c0,0-0.5,0-0.8-0.1c-0.5-0.2-1-0.4-1.4-0.7c-1-0.6-1.9-1.4-2.7-2.3c-2.1-2.6-2.6-6.8-1.1-9.8
				c0.2-0.4,0.4-0.8,0.7-1.2c1.2-1.7,2.1-3.6,3.1-5.5c1.7-3,3.4-6,5-9c1.1-2,2-4.1,3.3-6c0.5-0.8,1.7-0.3,2.6-0.2
				c1.4,0.2,2.9,0.2,4.3,0.1c2.9-0.1,5.8-0.7,8.6-1.6c1.7-0.5,3.3-1.2,4.9-2c1-0.5,2-1,2.6-1.9C58.4,390.4,58,388.8,57,387.6z"/>
			<path class="st5" d="M93.1,420.5c0.1,0.2,0.1,0.3,0.1,0.5c0.2,1.2,0.3,2.3,0.3,3.5c-0.2,3.3-2.4,5.8-5.5,6.9
				c-0.3,0.1-0.5,0.2-0.8,0.3c-0.3,0.1-0.5,0.1-0.8,0.2c-0.3,0.1-0.5,0.1-0.8,0.1c-0.3,0-0.5,0.1-0.8,0.1c-0.3,0-0.5,0-0.8,0
				c-0.3,0-0.5,0-0.8,0c-0.3,0-0.5,0-0.8,0c-1.3-0.1-2.7-0.3-4-0.6c-0.5-0.1-1.2-0.3-1.6-0.7c-0.2-0.2-0.2-0.4-0.5-0.6
				c-1.4-0.9-2.5-2.1-3.5-3.4c-2.9-4-3.8-8.6-3.4-13.4c0.5-5.8,0.7-11.7,1-17.5c0.2-4.9,0.2-9.7,0.6-14.6c0.6,1,1.2,1.9,1.8,2.9
				c1,1.7,2,3.5,3,5.2c1.6,2.9,3.2,5.8,4.8,8.7c1.8,3.2,3.6,6.4,5.4,9.7c1.5,2.7,3,5.5,4.5,8.3c0.5,0.9,1,1.9,1.5,2.8
				C92.5,419.3,92.9,419.9,93.1,420.5z M83.5,426.9c2.7,1.1,4.5,0.3,5.1-2.5c0.3-1.2,0.3-2.5,0.2-3.7c-0.5-5-2.8-9.2-6.1-13
				c-1.1-1.3-4-1.9-5.5-1.2c-2.1,1.2-2.2,3.2-2.1,5.3c0.2,3.2,1.2,6.2,2.7,9C79.2,423.3,80.8,425.6,83.5,426.9z"/>
			<path class="st6" d="M28.9,432c-3.7-4.4-4.7-9.3-2.8-14.6c1.7-4.5,5-7.7,9-10.3c6.2-4.1,13-6.1,20.3-6.4c0.4,0,0.9-0.1,1.2,0.5
				c-2,0.6-4.1,1.1-6,2c-3.4,1.6-6.4,3.8-9.2,6.4c-3.1,2.8-4.4,6.2-4,10.2c0.4,3.9,1.5,7.6,4.9,9.9c1.9,1.3,4.9,2.2,7.1,2.6
				c0,0-1.1,0-1.1,0s-16,0.1-16.4,0.1C30.9,432.1,29.9,432.1,28.9,432z"/>
			<path class="st1" d="M71.2,381.2c-0.4,4.9-0.3,9.7-0.6,14.6c-0.3,5.8-0.5,11.7-1,17.5c-0.4,4.8,0.5,9.4,3.4,13.4
				c0.9,1.3,2,2.6,3.5,3.4c0.3,0.2,0.6,0.3,0.6,0.7c0,0.1-2.7-0.9-3-1c-0.9-0.5-1.8-1.2-2.5-1.9c-1.6-1.6-2.7-3.6-3.5-5.7
				c-1-2.7-1.4-5.5-1.7-8.3c-0.8-7.7,0.2-15.2,0.1-22.9c0-1.5-0.1-2.9-0.1-4.4c-0.1-2.1-0.2-4.2-0.6-6.3c-0.3-2-0.9-4.1-1.7-6
				c-0.6-1.4-1.3-2.7-2.3-3.9c-0.6-0.6-1.2-1.3-1.8-1.8c-0.7-0.5-1.5-0.9-2.1-1.6c5.1,0.2,9,2.4,11.4,7
				C70.4,376.4,70.7,378.8,71.2,381.2z"/>
			<path class="st7" d="M83.5,426.9c2.1-5.2,0.7-10.1-1.8-14.8c-1.1-2.1-2.5-4.1-4.5-5.6c1.5-0.7,4.4-0.1,5.5,1.2
				c3.3,3.7,5.6,7.9,6.1,13c0.1,1.3,0.1,2.5-0.2,3.7C88,427.2,86.2,428,83.5,426.9z"/>
		</g>
	</g>
</g>
</svg>
