<svg id="Capa_1" data-name="Capa 1" xmlns="http://www.w3.org/2000/svg" viewBox="0 0 759.13 73.55"><defs><style>.cls-1{fill:#fff;}</style></defs><path class="cls-1" d="M55.92,59.33c-9.71-3.58-22.79,1.46-27.35,10-3.48,6.51-.34,14.14,8.34,19-6.57,0-12.5.38-18.37-.11S9.45,80.69,12.27,75.1c3.36-6.67,7.05-13.2,11-19.57.77-1.24,3.2-1.67,5-2.07,5.29-1.23,10.67-2,15.89-3.49,1.43-.39,3.61-2.9,3.33-3.62-.69-1.79-2.37-4-4.07-4.43-3.46-.92-7.19-.81-12.09-1.24C34.87,35.24,38,29.86,41.82,25.1c2.21-2.72,5.81-2.65,8.38.14a18.47,18.47,0,0,1,4.28,6.58C57.27,40.69,56.81,49.79,55.92,59.33Z" transform="translate(-11.25 -19.62)"/><path class="cls-1" d="M227.06,63.52V77.77c6.92,0,13.66,0,20.41,0,.83,0,1.65-.18,2.48-.22,8.69-.35,11.7,3.6,8.91,12-.3.92-2.19,1.86-3.36,1.88-13.82.24-27.63.39-41.45.28-1.34,0-3.81-1.92-3.81-3-.06-11.8-.59-23.7.71-35.37,1.41-12.62,9.14-18.37,21.91-18.52,7.13-.08,14.27,0,21.71,0V27H212.09V42.16h-2.23c0-5.47-.13-10.94.16-16.4,0-.69,2.24-1.79,3.46-1.81,13.48-.25,27-.3,40.45-.44,2.74,0,3.85,1.16,3.81,3.93-.16,11.06,2.15,10.05-9.38,10.08-4.83,0-9.66,0-14.49,0-12.22.1-19.53,5.71-20.57,17.77-1,11-.2,22.2-.2,33.48h42.84v-8c-8.88,0-17.48-.23-26.07.09-4.22.17-6.3-.75-5.88-5.39a69.25,69.25,0,0,0,0-10c-.2-3.45,1.14-4.8,4.63-4.66,5.32.2,10.66.09,16,0,1.95,0,3.89-.29,6-.46V52.52H230.49c-7,0-8.25-2-5-10.77.87,3.3,1.39,5.25,2.05,7.77,6.46,0,13.38-.14,20.28.08,1.92.06,5.33,1,5.43,1.84a44.8,44.8,0,0,1-.38,11.26c-.05.44-2.65.77-4.07.78C241.66,63.56,234.52,63.52,227.06,63.52Z" transform="translate(-11.25 -19.62)"/><path class="cls-1" d="M484.14,74.51c1.41-.63,2.82-1.28,4.24-1.9,8.32-3.64,12.26-13.52,9.28-23.3-2.52-8.29-10-12.71-18.7-11.06-7,1.32-11.41,6.66-12.68,15.4-1.83,12.63,6.38,25.23,17.89,27.44C497,83.55,510,75.36,512.46,62.47c2.42-12.5-.81-23.69-11.08-31.73-9.89-7.74-21.16-8.84-32.45-3.41S452,42.48,451.75,55c-.32,18.13,10.55,30.91,28,32.87,3.64.41,7.42-.47,11.13-.76.18.45.36.89.55,1.33-1.7.68-3.34,1.69-5.11,2-17.41,2.83-33.43-9.27-37.06-27.87-2.72-13.91,3.54-28.91,15-36.1a34.2,34.2,0,0,1,38.09,1.36c11.48,8.36,16.76,25.07,12.13,38.45-4.48,12.95-18.22,20.3-32.16,17.2-12.12-2.7-20.31-15.56-18.9-29.7,1.05-10.62,7.34-17.78,16.28-18.54,10.75-.91,18.6,4.45,21,14.31,2.59,10.8-1.91,21.71-10.68,25.49-1.68.72-3.65.76-5.48,1.11Z" transform="translate(-11.25 -19.62)"/><path class="cls-1" d="M365.73,89.49c-4.8,3.25-10.37,2.43-15.58,1.56-17.35-2.92-29.46-20.7-26.76-38.7,3-19.93,18.61-32.21,38-29.86,17.57,2.14,30.53,18.39,29.06,36.46C389,76.71,374.93,87.65,357.6,84.51c-10.78-2-19-11.72-19.6-24a37,37,0,0,1,1.16-11.82c2.35-8.17,9.18-12.81,17.65-12.79s14.67,4.44,17.56,12.31c4,11-.11,23-9.61,27.52-1.71.81-3.73.94-5.61,1.38l-.58-1.82c1.5-.63,3-1.24,4.5-1.9,6.91-3.11,10.77-10.93,9.73-19.64-1-8.11-6.08-13.76-13.85-14.88-6.09-.89-11.5,1-14.83,6.22-5.72,8.94-4.35,18.2.51,27,4.31,7.81,12.61,11.35,21.72,9.91,13.12-2.07,21.53-12.09,21.36-25.43-.22-16.37-12.11-30-27.31-31.23-17.49-1.44-30.9,8.78-34.07,26-3,16.32,6.61,32.42,22.28,36.4,4.21,1.07,8.86.46,13.31.53a24.57,24.57,0,0,0,3.49-.47C365.52,88.32,365.62,88.91,365.73,89.49Z" transform="translate(-11.25 -19.62)"/><path class="cls-1" d="M314.5,34.14c-10-9-27-11.31-38.23-5.47a15.88,15.88,0,0,0-9.1,14.46c-.15,6.28,2.48,11.79,8.4,14.18,7.19,2.91,14.85,4.62,22.26,7,4.56,1.48,9.38,2.67,13.42,5.1,6.91,4.15,7.28,10.17,1.28,15.58-8.92,8-19.74,8.5-30.59,5.92-5.84-1.38-11.32-4.53-16.79-7.23-2.93-1.44-3-3.72-.36-5.88a28.27,28.27,0,0,0,2.12-2.12c5.79-5.79,5.72-5.6,13.42-2.62,7.28,2.82,14.73,4.34,22.27-.74.52,5.09-3.44,5.87-5.94,5.7-6.36-.41-12.67-1.79-19-3-1.23-.23-2.31-1.23-3.71-2l-8,8c12.08,7.83,24.48,10.81,38.15,6a6.1,6.1,0,0,0,2.63-1.39c2.41-2.76,6.29-5.6,6.43-8.56.1-2.21-4.33-5.62-7.39-6.8-7.26-2.81-14.91-4.59-22.39-6.82A65.14,65.14,0,0,1,275.82,61c-6.59-2.89-10.71-7.76-11.35-15.16s1.64-13.82,8-18.27c11.23-7.89,34.34-5.85,43.84,4.06.86.89.24,3.26.16,4.93,0,.37-.66.71-1,1.07-7.21,7.44-7.08,7.1-16.55,3.6-4-1.48-8.72-1.42-13.13-1.53-1.16,0-3.18,1.78-3.34,2.94s1.44,3.1,2.67,3.52c4.86,1.67,10.07,2.43,14.8,4.36a64.83,64.83,0,0,1,14.24,7.76c3.11,2.32,4.53,6.29,3.53,11.47-1.08-1.18-1.88-1.64-2-2.25-1.86-8.56-8.25-12-15.81-14.13-4.8-1.34-9.66-2.51-14.44-3.9-3.62-1.06-6.49-3-5.93-7.38.54-4.21,4.08-5.62,7.3-5.44,5.19.3,10.72.89,15.35,3,4,1.82,6.24,1.57,8.72-1.61C311.84,36.75,313.08,35.63,314.5,34.14Z" transform="translate(-11.25 -19.62)"/><path class="cls-1" d="M633.31,89.15c-6,0-11.1.24-16.14-.18-1.16-.1-2.53-2.33-3.14-3.85-3.58-8.9-3.51-8.9-13.16-9-2.57,0-5.13-.28-7.7-.43V73.36c6.16,0,12.34-.16,18.48.19.89,0,1.87,2.46,2.44,3.93,3.87,9.9,3.84,9.91,15.13,8.36-3.42-9.26-6.81-18.41-10.18-27.57C615.25,48,611.28,37.74,607.8,27.34c-1.44-4.31-4.51-3.07-7.24-3.09s-5.45-1.08-6.83,3c-6.55,19.19-13.4,38.28-20.14,57.4a8.47,8.47,0,0,0-.21,1.44c8.44,1.2,8.35,1.17,11.15-6.32,1.39-3.7,2.71-7.59,4.92-10.8,3.52-5.12,8.92-7.27,16-6.72l-5.84-15.91c-2.37,6.18-4.38,11.43-6.62,17.24-1.86-3.63,2.24-17.17,7.06-24.09,3.17,8.47,6.07,16.2,9.27,24.72-2.29.28-4,.62-5.67.66-7,.15-11.56,3.63-14.25,9.86-.66,1.53-1.12,3.13-1.67,4.7-3.8,10.79-6.11,12-18.28,9.33.56-2,1-4.08,1.69-6,6.61-18.82,13.34-37.6,19.82-56.46,1.29-3.74,3.09-5.11,7.15-5,10.4.3,10.42.07,14.07,10q9.69,26.21,19.32,52.4C632,85,632.41,86.41,633.31,89.15Z" transform="translate(-11.25 -19.62)"/><path class="cls-1" d="M204.55,80.35c-9.56,9.84-25.87,10-35.32.61a30.16,30.16,0,0,1-8.92-27.42C163,37.47,178.8,32,192.49,42.27l6.81-7.75c-5.85-7.36-18.79-10.42-30.17-6.73a30.29,30.29,0,0,0-21,28.73c.06,20.91,11.41,32,32.26,34L180.13,92c-1.67.21-3.36.75-5,.59-19.11-1.81-32-19.21-29.41-39.74,1.6-12.53,8.13-21.8,19.84-26.69,11.93-5,23.47-3.62,34,4.12,4.91,3.6,4.78,4.48.61,8.72a99.73,99.73,0,0,0-6.57,8.16L192.39,46c-1.71-1.31-3.32-2.77-5.13-3.89a15.69,15.69,0,0,0-22.5,6.54c-6.69,13.85,2.94,33.2,18,36.13,6.23,1.22,11.79-.52,17.53-4.16l-7.22-6.89c-9.45,6.11-14.57,6.93-19.89,2.4,2.08,0,3.33.28,4.39-.05,4.16-1.3,8.54-2.28,12.26-4.4,2.26-1.28,3.53-2,5.47-.08C198.36,74.58,201.48,77.46,204.55,80.35Z" transform="translate(-11.25 -19.62)"/><path class="cls-1" d="M141,81.73,132.84,74c-5.83,4.44-11.77,7.12-18.56,4.39L114,76.84c3.31-.33,6.81-.12,9.88-1.16s5.65-3.29,9-5.38L143.27,82c-9.51,10-28,8.38-37.09-3.95A31.72,31.72,0,0,1,100,54.94c2-17,19.77-22.88,32.52-12.27l6.71-7.74c-6.27-7.57-19.39-10.49-30.8-6.55A30.15,30.15,0,0,0,88.06,57C88.13,77.88,99.58,88.91,120.4,91l-.31,1.44c-1.51.27-3,.87-4.53.76-13.92-1.07-25.64-11.32-29.28-25.48-3.81-14.81,1.82-30.42,13.83-38.34,11.78-7.78,28.36-7.24,39.38,1.29,4.8,3.71,4.88,4.61.7,8.8-2.11,2.12-4.25,4.23-6.41,6.3a6.55,6.55,0,0,1-1.55.76c-.82-.69-1.7-1.4-2.56-2.13-9.11-7.84-22-4.42-25.91,6.86-5.71,16.68,8,35.69,24.73,34.08C132.31,84.94,136,83.2,141,81.73Z" transform="translate(-11.25 -19.62)"/><path class="cls-1" d="M539.36,40.06V86.39h12c0-6,0-12,0-18.12-.05-4.83-.16-9.66-.37-14.48-.49-11.71-6.35-17.68-18.07-18.21-4-.18-8,.11-12,.29-3,.13-4.18-1-4.1-4.11.27-11.57-1.5-9.76,9.67-9.9,13.83-.17,27.66-.08,41.47-.43,4.54-.12,6.65,1.14,5.92,5.88a13.15,13.15,0,0,0,0,3.49c.42,3.49-1,4.8-4.53,4.61a88,88,0,0,0-11.48.18c-1.81.14-3.57,1-5.77,1.71-2-2.92-1.52-4.25,2.54-4.4,5.28-.19,10.57,0,16.05,0V24.73H520v8.13c4.58,0,9-.15,13.44,0,12.83.54,19.83,7.13,20.37,19.87.46,11,.16,22,.32,33,0,2.77-.88,3.88-3.73,3.8-16.1-.46-13,2.9-13.28-12.77-.18-10.66-.17-21.32-.16-32a33.53,33.53,0,0,1,.72-4.83Z" transform="translate(-11.25 -19.62)"/><path class="cls-1" d="M414.06,41.16V87.5h10.73c0-12.73.63-25.18-.22-37.53-.58-8.41-7.19-13.09-16-13.42a121,121,0,0,0-12.49,0c-4.08.28-5.12-1.43-5.07-5.25.11-8.6-.05-8.7,8.68-8.79,14.5-.14,29,0,43.49-.25,3.62-.06,5.06,1,5,4.77-.25,11,.86,9.05-9.39,9.33-4.15.12-8.28.66-13.12,1.07-.76-1.94-.33-3.92,3.57-3.94,5.14,0,10.28,0,15.8,0V25.63H394.13v8.22H406.4c13.91,0,20.66,5.93,21.58,19.94.72,10.78.47,21.63.76,32.45.09,3.27-1.28,4.26-4.47,4.34-12.42.31-12.42.4-12.56-12.09-.12-10.82-.25-21.65-.31-32.48a45.7,45.7,0,0,1,.51-5Z" transform="translate(-11.25 -19.62)"/><path class="cls-1" d="M641.27,71.69c.23,4.64.46,9.29.71,14.27h40.81v-8.1H665c-18.46,0-25.11-6.24-26-24.9-.45-9.14-.3-18.31-.57-27.46-.1-3.2,1-4.53,4.32-4.36,4,.2,7.94.05,12.44.05V69.94l-1.77.07V24.22H640.4c.92,12.8,1.09,25.28,2.94,37.5,1.43,9.44,7.12,13,16.68,13.11,7.32.07,14.65.09,22,0,3,0,4.14,1,4.09,4.1-.21,11.72,1.17,9.77-9.71,9.93s-21.64.1-32.45.4c-4,.12-5.37-1.27-5.11-5.19.27-4.1.06-8.23.06-12.35Z" transform="translate(-11.25 -19.62)"/><path class="cls-1" d="M62.05,38.38c6.72,12.22,13.51,24.4,20.11,36.68,2,3.8,2.07,7.77-1.3,11-3.09,3-10.28,3.34-14.06.84-5.34-3.55-7.57-8.81-7.37-15,.36-11.1,1-22.19,1.6-33.28Zm5.09,24.7c-4,6,.09,17.17,6.54,18.84C75,74.41,72.39,68.44,67.14,63.08Z" transform="translate(-11.25 -19.62)"/><path class="cls-1" d="M723.39,34.7V56.53H730V22.84c-8.2-1.66-8.22-1.63-11.22,5.94-1.42,3.59-3,7.13-4.43,10.7l-1.53-.62c2.31-5.71,4.4-11.52,7.11-17,.52-1.06,3.48-1.07,5.34-1.27s3.94,0,6.36,0V58.09h-9.42V40.81c-.72,0-1.14-.19-1.26-.06-6.12,6.31-9.11,5.71-12.37-2.49-1.16-2.94-2.32-5.88-3.45-8.83-3-7.87-3-7.87-11.84-6.57v34h5V33.59l1.23-.36c1.07,2.41,2.21,4.79,3.18,7.24,1.83,4.64,3.49,9.35,5.41,14,.44,1.06,1.73,2.64,2.41,2.54a5,5,0,0,0,3.2-2.38c1.42-2.64,2.42-5.52,3.6-8.3l1.34.58a102,102,0,0,1-4.14,10.33c-1.34,2.56-6.41,1.76-7.62-1.12-2.13-5-4-10.17-6.77-15.25V58.51H691.4c0-11.83,0-23.44,0-35a3.21,3.21,0,0,1,.82-2.21c3-2.59,11.46-.27,12.93,3.47,1.82,4.64,3.43,9.38,5.52,13.9.81,1.77,2.46,3.92,4.1,4.3,1.16.28,3.16-1.94,4.41-3.37a33,33,0,0,0,3-5Z" transform="translate(-11.25 -19.62)"/><path class="cls-1" d="M753.19,46.31c5.1,3.68,5,12.68,14.06,9.6-2.85-4.67-5.48-9.36-8.51-13.78-1.58-2.32-1.43-4,0-6.26,2.76-4.31,5.26-8.79,7.87-13.19l-1.17-1.48c-1.88,1.22-4.55,2-5.48,3.74-2.17,4-3.34,8.59-5.22,12.8-2.91,6.47-5.58,13.14-9.43,19-1.22,1.86-5.87,1.49-8.95,2.13l-.83-1.23c3.19-5.35,6.23-10.79,9.62-16,1.58-2.44,1.62-4.25,0-6.66-3-4.35-5.66-8.94-8.5-13.5,8.77-3.18,13.61-.3,15.55,9.57-1.47-2.21-2.58-4.84-4.52-6.51s-4.55-2.14-6.88-3.15l-1,1.45c2.56,4.17,5.34,8.22,7.56,12.56a7.17,7.17,0,0,1,.08,5.67c-2.57,5-5.68,9.72-8.71,14.75,3.14,1.8,5.31,1.23,6.63-1.73,2.81-6.31,5.48-12.68,8.24-19,1.85-4.24,3-9.06,5.91-12.46,1.79-2.12,6.13-2.08,9.33-3l.87,1.54c-3,4.95-5.74,10-8.91,14.8-1.54,2.34-1.33,4,.15,6.22,3.29,4.93,6.3,10,9.53,15.23C760.56,59.9,757.36,57.88,753.19,46.31Z" transform="translate(-11.25 -19.62)"/><path class="cls-1" d="M709.57,80.43c-4.89-8.1-8.08-10-12.36-7.7A7.62,7.62,0,0,0,694,82.25c2,4.44,5.64,4.86,14,1.6-.28,3.85-3.94,6.1-8.85,5.45-6-.8-9.82-6.8-8.25-13,1.34-5.33,7.48-8.51,13.09-6.79C708.85,71,711.43,75.67,709.57,80.43Z" transform="translate(-11.25 -19.62)"/></svg>