<svg xmlns="http://www.w3.org/2000/svg" width="27.27" height="16.362" viewBox="0 0 27.27 16.362">
  <path id="language-solid" d="M19.089,68.261a.831.831,0,0,1,.852.852v.17H22.5a.831.831,0,0,1,.852.852.855.855,0,0,1-.852.852h-.085l-.068.192a8.749,8.749,0,0,1-1.692,2.787c.038.021.077.009.115.068l.805.482a.852.852,0,0,1-.878,1.462L19.89,75.5a4.354,4.354,0,0,1-.558-.362,8.46,8.46,0,0,1-1.444.827l-.158.068a.853.853,0,0,1-.69-1.56l.153-.068c.273-.124.537-.3.788-.418l-.516-.52a.85.85,0,0,1,1.2-1.2l.622.618.026-.013a5.774,5.774,0,0,0,1.27-1.917H16.021a.81.81,0,0,1-.852-.852.831.831,0,0,1,.852-.852h2.216v-.17a.831.831,0,0,1,.852-.852ZM6.818,71.21l.81,1.824H5.97ZM0,66.727A2.727,2.727,0,0,1,2.727,64H24.543a2.728,2.728,0,0,1,2.727,2.727V77.635a2.73,2.73,0,0,1-2.727,2.727H2.727A2.728,2.728,0,0,1,0,77.635ZM13.635,77.635H24.543V66.727H13.635ZM7.6,68.768a.853.853,0,0,0-1.56,0L3.312,74.9a.865.865,0,0,0,.433,1.125.854.854,0,0,0,1.126-.435L5.25,74.7H8.386l.379.895a.852.852,0,0,0,1.125.435.865.865,0,0,0,.435-1.125Z" transform="translate(0 -64)" fill="#fff"/>
</svg>
